<svg width="100%" height="100%" viewBox="0 0 23 23" fill="white" xmlns="http://www.w3.org/2000/svg">
<path d="M20.5625 0.625H2.4375C1.9568 0.625 1.49578 0.815959 1.15587 1.15587C0.815959 1.49578 0.625 1.9568 0.625 2.4375V20.5625C0.625 21.0432 0.815959 21.5042 1.15587 21.8441C1.49578 22.184 1.9568 22.375 2.4375 22.375H20.5625C21.0432 22.375 21.5042 22.184 21.8441 21.8441C22.184 21.5042 22.375 21.0432 22.375 20.5625V2.4375C22.375 1.9568 22.184 1.49578 21.8441 1.15587C21.5042 0.815959 21.0432 0.625 20.5625 0.625ZM2.4375 20.5625V2.4375H20.5625V20.5625H2.4375Z" />
</svg>
