<svg width="100%" height="100%" viewBox="0 0 41 41" fill="none" xmlns="http://www.w3.org/2000/svg">
<path d="M20.4999 0C9.22508 0 0 9.22511 0 20.5C0 31.7754 9.22508 41 20.4999 41C22.4363 41 23.9166 39.5197 23.9166 37.5833C23.9166 36.6725 23.5752 35.875 23.0057 35.3056C22.4363 34.7361 22.0949 33.9386 22.0949 33.0277C22.0949 31.0915 23.5751 29.6111 25.5115 29.6111H29.6111C35.875 29.6111 41 24.4861 41 18.2223C40.9999 8.20021 31.7753 0 20.4999 0ZM7.97224 20.5C6.03585 20.5 4.55558 19.0197 4.55558 17.0833C4.55558 15.1469 6.03585 13.6667 7.97224 13.6667C9.90852 13.6667 11.3889 15.1469 11.3889 17.0833C11.3889 19.0197 9.90852 20.5 7.97224 20.5ZM14.8056 11.3889C12.8692 11.3889 11.3889 9.90855 11.3889 7.97226C11.3889 6.03586 12.8692 4.55559 14.8056 4.55559C16.7418 4.55559 18.2222 6.03586 18.2222 7.97226C18.2222 9.90855 16.7418 11.3889 14.8056 11.3889ZM26.1943 11.3889C24.2581 11.3889 22.7777 9.90855 22.7777 7.97226C22.7777 6.03586 24.2581 4.55559 26.1943 4.55559C28.1307 4.55559 29.611 6.03586 29.611 7.97226C29.611 9.90855 28.1307 11.3889 26.1943 11.3889ZM33.0277 20.5C31.0914 20.5 29.611 19.0197 29.611 17.0833C29.611 15.1469 31.0914 13.6667 33.0277 13.6667C34.964 13.6667 36.4443 15.1469 36.4443 17.0833C36.4443 19.0197 34.964 20.5 33.0277 20.5Z" fill="white"/>
</svg>
