<svg width="100%" height="100%" viewBox="0 0 44 44" fill="none" xmlns="http://www.w3.org/2000/svg">
<path d="M35.7845 11.2871C35.314 8.49125 33.9297 5.93975 31.8125 4.00349C29.46 1.85009 26.4018 0.664816 23.2169 0.664816C20.7559 0.664816 18.3582 1.37055 16.3043 2.70059C14.5943 3.80444 13.1738 5.29734 12.1694 7.05264C11.7351 6.97121 11.2827 6.92597 10.8304 6.92597C6.98499 6.92597 3.85441 10.0565 3.85441 13.9019C3.85441 14.3995 3.9087 14.8791 3.99918 15.3496C1.511 17.1591 0 20.0726 0 23.176C0 25.6823 0.931935 28.1162 2.63294 30.0434C4.37919 32.0158 6.68641 33.183 9.14744 33.3187C9.17458 33.3187 9.19268 33.3187 9.21982 33.3187H17.001C17.6796 33.3187 18.2225 32.7758 18.2225 32.0972C18.2225 31.4186 17.6796 30.8758 17.001 30.8758H9.25601C5.55542 30.6496 2.44294 27.1299 2.44294 23.167C2.44294 20.6064 3.81822 18.2178 6.03496 16.9239C6.55069 16.6253 6.76784 16.001 6.56878 15.44C6.38783 14.9515 6.29735 14.4357 6.29735 13.8838C6.29735 11.3866 8.33313 9.35081 10.8304 9.35081C11.3642 9.35081 11.889 9.44129 12.3775 9.62224C12.9747 9.83939 13.6352 9.56796 13.9066 8.99794C15.5986 5.40592 19.254 3.08965 23.226 3.08965C28.5643 3.08965 32.9706 7.08883 33.4773 12.3909C33.5316 12.9428 33.9478 13.3862 34.4906 13.4767C38.517 14.1643 41.5571 17.883 41.5571 22.1264C41.5571 26.6233 38.0193 30.532 33.6582 30.8667H26.9899C26.3113 30.8667 25.7685 31.4096 25.7685 32.0882C25.7685 32.7668 26.3113 33.3097 26.9899 33.3097H33.7035C33.7306 33.3097 33.7578 33.3097 33.794 33.3097C36.5536 33.1106 39.1322 31.8439 41.0504 29.7267C42.9595 27.6276 44 24.9313 44 22.1264C43.991 17.0506 40.5256 12.5357 35.7845 11.2871Z" fill="white"/>
<path d="M29.3335 24.3342C29.813 23.8546 29.813 23.0855 29.3335 22.606L22.8642 16.1368C22.638 15.9106 22.3213 15.7748 22.0046 15.7748C21.688 15.7748 21.3713 15.9015 21.1451 16.1368L14.6758 22.606C14.1963 23.0855 14.1963 23.8546 14.6758 24.3342C14.9111 24.5694 15.2277 24.6961 15.5354 24.6961C15.843 24.6961 16.1597 24.5785 16.3949 24.3342L20.7832 19.9459V40.1137C20.7832 40.7923 21.326 41.3352 22.0046 41.3352C22.6832 41.3352 23.2261 40.7923 23.2261 40.1137V19.9459L27.6143 24.3342C28.0848 24.8137 28.8539 24.8137 29.3335 24.3342Z" fill="white"/>
</svg>
